<svg width="64" height="110" viewBox="0 0 64 110" fill="none" xmlns="http://www.w3.org/2000/svg">
  <path
    d="M49.0781 27.0652H60.8231C61.0904 27.0652 61.355 27.1178 61.6019 27.2201C61.8488 27.3224 62.0731 27.4723 62.2621 27.6612C62.4511 27.8502 62.601 28.0745 62.7032 28.3214C62.8055 28.5683 62.8581 28.8329 62.8581 29.1002V101.65C62.8581 102.19 62.6437 102.708 62.2621 103.089C61.8805 103.471 61.3628 103.685 60.8231 103.685H49.0781V27.0652Z"
    fill="#231F20"
  />
  <path
    d="M60.8231 103.935H49.0781C49.0122 103.934 48.9494 103.907 48.9028 103.861C48.8562 103.814 48.8294 103.751 48.8281 103.685V27.0652C48.8294 26.9993 48.8562 26.9364 48.9028 26.8898C48.9494 26.8432 49.0122 26.8165 49.0781 26.8152H60.8231C61.4287 26.8165 62.0092 27.0577 62.4374 27.4859C62.8656 27.9141 63.1068 28.4946 63.1081 29.1002V101.65C63.1068 102.256 62.8656 102.836 62.4374 103.264C62.0092 103.693 61.4287 103.934 60.8231 103.935ZM49.3231 103.435H60.8231C61.2961 103.434 61.7494 103.245 62.0839 102.911C62.4183 102.576 62.6068 102.123 62.6081 101.65V29.1002C62.6081 28.6268 62.4201 28.1727 62.0853 27.838C61.7506 27.5032 61.2965 27.3152 60.8231 27.3152H49.3231V103.435Z"
    fill="#231F20"
  />
  <path d="M5.70334 25.2751L0.67334 27.6251L3.65334 102.145H9.06834L5.70334 25.2751Z" fill="#231F20" />
  <path
    d="M9.0682 102.395H3.6532C3.58859 102.395 3.52648 102.37 3.47987 102.325C3.43326 102.281 3.40579 102.22 3.4032 102.155L0.403202 27.6551C0.400524 27.6064 0.412417 27.5581 0.437355 27.5162C0.462293 27.4743 0.499147 27.4409 0.543206 27.4201L5.57821 25.0701C5.61463 25.0516 5.65488 25.042 5.6957 25.042C5.73653 25.042 5.77678 25.0516 5.8132 25.0701C5.84961 25.0905 5.87992 25.1203 5.90101 25.1563C5.9221 25.1923 5.93322 25.2333 5.93321 25.2751L9.2982 102.145C9.30068 102.179 9.2957 102.213 9.28362 102.245C9.27153 102.277 9.25262 102.306 9.2282 102.33C9.18478 102.371 9.12775 102.394 9.0682 102.395ZM3.8932 101.895H8.8082L5.4732 25.6851L0.928204 27.8051L3.8932 101.895Z"
    fill="#231F20"
  />
  <path
    d="M52.5884 101.815C52.5553 102.865 52.1899 103.878 51.5448 104.707C50.8997 105.536 50.0081 106.14 48.9984 106.43C35.7119 110.123 21.6698 110.123 8.38339 106.43C7.37367 106.14 6.48212 105.536 5.83701 104.707C5.19191 103.878 4.82651 102.865 4.79339 101.815L2.48339 27.065C2.44459 25.9365 2.7936 24.8287 3.47229 23.9262C4.15099 23.0237 5.1184 22.381 6.21339 22.105C13.5737 20.3797 21.1138 19.5404 28.6734 19.605C36.2346 19.5405 43.7764 20.3797 51.1384 22.105C52.2352 22.3797 53.205 23.0216 53.8863 23.924C54.5677 24.8264 54.9195 25.9349 54.8834 27.065L52.5884 101.815Z"
    fill="white"
  />
  <path
    d="M28.7132 109.45C21.8173 109.489 14.9501 108.558 8.31321 106.685C7.25278 106.381 6.31635 105.747 5.63883 104.877C4.96131 104.006 4.57768 102.943 4.54321 101.84L2.21321 27.075C2.17817 25.8884 2.54903 24.7253 3.2645 23.778C3.97998 22.8307 4.99726 22.1559 6.14821 21.865C10.7682 20.725 18.4232 19.365 28.6482 19.365C38.8732 19.365 46.5532 20.725 51.1732 21.865C52.3242 22.1559 53.3414 22.8307 54.0569 23.778C54.7724 24.7253 55.1433 25.8884 55.1082 27.075L52.7982 101.825C52.7637 102.928 52.3801 103.991 51.7026 104.862C51.0251 105.732 50.0886 106.366 49.0282 106.67C42.4193 108.539 35.5814 109.475 28.7132 109.45ZM28.7132 19.865C18.5182 19.865 10.9032 21.215 6.31321 22.365C5.26697 22.6184 4.33908 23.2225 3.68406 24.0767C3.02903 24.931 2.6864 25.9838 2.71321 27.06L5.02321 101.81C5.05373 102.807 5.40052 103.769 6.01348 104.556C6.62644 105.344 7.47383 105.916 8.43321 106.19C21.6818 109.875 35.6846 109.875 48.9332 106.19C49.8918 105.914 50.7383 105.342 51.3511 104.555C51.9638 103.768 52.3112 102.807 52.3432 101.81L54.6532 27.06C54.6859 25.9874 54.3512 24.9358 53.7048 24.0792C53.0583 23.2227 52.1387 22.6126 51.0982 22.35C46.5032 21.215 38.8882 19.865 28.7132 19.865Z"
    fill="#231F20"
  />
  <path
    d="M46.2733 29.0452H11.1033C9.55418 29.0452 8.29834 30.301 8.29834 31.8502V57.5552C8.29834 59.1043 9.55418 60.3602 11.1033 60.3602H46.2733C47.8225 60.3602 49.0783 59.1043 49.0783 57.5552V31.8502C49.0783 30.301 47.8225 29.0452 46.2733 29.0452Z"
    fill="#86C2C5"
  />
  <path
    d="M28.0883 66.1501C19.8996 66.1184 11.7196 65.6176 3.58826 64.6501C3.52195 64.6415 3.46179 64.6069 3.421 64.5539C3.38021 64.501 3.36214 64.4339 3.37076 64.3676C3.37938 64.3013 3.41398 64.2412 3.46696 64.2004C3.51994 64.1596 3.58695 64.1415 3.65325 64.1501C3.97825 64.1951 36.5633 68.3751 53.6983 62.5401C53.7581 62.5274 53.8205 62.5371 53.8737 62.5673C53.9269 62.5975 53.9672 62.6462 53.9869 62.7041C54.0066 62.762 54.0044 62.8252 53.9807 62.8816C53.957 62.938 53.9134 62.9837 53.8583 63.0101C46.7633 65.4351 37.0683 66.1501 28.0883 66.1501Z"
    fill="#231F20"
  />
  <path
    d="M19.013 95.74H11.048C10.5261 95.74 10.103 96.1631 10.103 96.685V99.715C10.103 100.237 10.5261 100.66 11.048 100.66H19.013C19.5349 100.66 19.958 100.237 19.958 99.715V96.685C19.958 96.1631 19.5349 95.74 19.013 95.74Z"
    fill="#86C2C5"
  />
  <path
    d="M19.008 100.91H11.048C10.7311 100.91 10.4271 100.784 10.203 100.56C9.97893 100.336 9.85303 100.032 9.85303 99.715V96.685C9.85303 96.3681 9.97893 96.0641 10.203 95.84C10.4271 95.6159 10.7311 95.49 11.048 95.49H19.008C19.1658 95.4887 19.3223 95.5186 19.4684 95.5781C19.6145 95.6376 19.7475 95.7254 19.8595 95.8365C19.9715 95.9476 20.0604 96.0798 20.1211 96.2254C20.1818 96.371 20.213 96.5273 20.213 96.685V99.715C20.213 99.8728 20.1818 100.029 20.1211 100.175C20.0604 100.32 19.9715 100.452 19.8595 100.564C19.7475 100.675 19.6145 100.762 19.4684 100.822C19.3223 100.881 19.1658 100.911 19.008 100.91ZM11.048 95.99C10.8637 95.99 10.6869 96.0633 10.5566 96.1936C10.4262 96.3239 10.353 96.5007 10.353 96.685V99.715C10.353 99.8994 10.4262 100.076 10.5566 100.206C10.6869 100.337 10.8637 100.41 11.048 100.41H19.008C19.1924 100.41 19.3691 100.337 19.4995 100.206C19.6298 100.076 19.703 99.8994 19.703 99.715V96.685C19.703 96.5007 19.6298 96.3239 19.4995 96.1936C19.3691 96.0633 19.1924 95.99 19.008 95.99H11.048Z"
    fill="#231F20"
  />
  <path
    d="M32.6732 95.74H24.7082C24.1863 95.74 23.7632 96.1631 23.7632 96.685V99.715C23.7632 100.237 24.1863 100.66 24.7082 100.66H32.6732C33.1951 100.66 33.6182 100.237 33.6182 99.715V96.685C33.6182 96.1631 33.1951 95.74 32.6732 95.74Z"
    fill="#D1D3D4"
  />
  <path
    d="M32.6731 100.91H24.7131C24.3961 100.91 24.0922 100.784 23.8681 100.56C23.644 100.336 23.5181 100.032 23.5181 99.715V96.685C23.5181 96.3681 23.644 96.0641 23.8681 95.84C24.0922 95.6159 24.3961 95.49 24.7131 95.49H32.6781C32.995 95.49 33.299 95.6159 33.5231 95.84C33.7472 96.0641 33.8731 96.3681 33.8731 96.685V99.715C33.8731 99.8723 33.842 100.028 33.7816 100.173C33.7213 100.319 33.6328 100.451 33.5213 100.562C33.4098 100.673 33.2775 100.761 33.1319 100.82C32.9864 100.88 32.8304 100.911 32.6731 100.91ZM24.7131 95.99C24.6214 95.9893 24.5305 96.0068 24.4456 96.0415C24.3607 96.0761 24.2835 96.1272 24.2184 96.1918C24.1533 96.2564 24.1017 96.3332 24.0664 96.4179C24.0312 96.5025 24.0131 96.5933 24.0131 96.685V99.715C24.0131 99.8993 24.0863 100.076 24.2166 100.206C24.347 100.337 24.5237 100.41 24.7081 100.41H32.6731C32.8574 100.41 33.0342 100.337 33.1645 100.206C33.2948 100.076 33.3681 99.8993 33.3681 99.715V96.685C33.3681 96.5007 33.2948 96.3239 33.1645 96.1936C33.0342 96.0632 32.8574 95.99 32.6731 95.99H24.7131Z"
    fill="#231F20"
  />
  <path
    d="M46.3333 95.74H38.3683C37.8464 95.74 37.4233 96.1631 37.4233 96.685V99.715C37.4233 100.237 37.8464 100.66 38.3683 100.66H46.3333C46.8553 100.66 47.2783 100.237 47.2783 99.715V96.685C47.2783 96.1631 46.8553 95.74 46.3333 95.74Z"
    fill="#86C2C5"
  />
  <path
    d="M46.3333 100.91H38.3683C38.0514 100.91 37.7475 100.784 37.5233 100.56C37.2992 100.336 37.1733 100.032 37.1733 99.715V96.685C37.1733 96.3681 37.2992 96.0641 37.5233 95.84C37.7475 95.6159 38.0514 95.49 38.3683 95.49H46.3333C46.6503 95.49 46.9542 95.6159 47.1783 95.84C47.4024 96.0641 47.5283 96.3681 47.5283 96.685V99.715C47.5283 100.032 47.4024 100.336 47.1783 100.56C46.9542 100.784 46.6503 100.91 46.3333 100.91ZM38.3683 95.99C38.184 95.99 38.0072 96.0632 37.8769 96.1936C37.7466 96.3239 37.6733 96.5007 37.6733 96.685V99.715C37.6733 99.8993 37.7466 100.076 37.8769 100.206C38.0072 100.337 38.184 100.41 38.3683 100.41H46.3333C46.5177 100.41 46.6944 100.337 46.8248 100.206C46.9551 100.076 47.0283 99.8993 47.0283 99.715V96.685C47.0283 96.5007 46.9551 96.3239 46.8248 96.1936C46.6944 96.0632 46.5177 95.99 46.3333 95.99H38.3683Z"
    fill="#231F20"
  />
  <path
    d="M19.008 93.035H11.048C10.7311 93.035 10.4271 92.9091 10.203 92.685C9.97893 92.4609 9.85303 92.1569 9.85303 91.84V88.81C9.85303 88.4931 9.97893 88.1891 10.203 87.965C10.4271 87.7409 10.7311 87.615 11.048 87.615H19.008C19.325 87.615 19.6289 87.7409 19.853 87.965C20.0771 88.1891 20.203 88.4931 20.203 88.81V91.84C20.203 92.1569 20.0771 92.4609 19.853 92.685C19.6289 92.9091 19.325 93.035 19.008 93.035ZM11.048 88.115C10.8637 88.115 10.6869 88.1882 10.5566 88.3186C10.4262 88.4489 10.353 88.6257 10.353 88.81V91.84C10.353 92.0243 10.4262 92.2011 10.5566 92.3314C10.6869 92.4618 10.8637 92.535 11.048 92.535H19.008C19.1924 92.535 19.3691 92.4618 19.4995 92.3314C19.6298 92.2011 19.703 92.0243 19.703 91.84V88.81C19.703 88.6257 19.6298 88.4489 19.4995 88.3186C19.3691 88.1882 19.1924 88.115 19.008 88.115H11.048Z"
    fill="#231F20"
  />
  <path
    d="M32.6731 93.035H24.7131C24.3961 93.035 24.0922 92.9091 23.8681 92.685C23.644 92.4609 23.5181 92.1569 23.5181 91.84V88.81C23.5181 88.4931 23.644 88.1891 23.8681 87.965C24.0922 87.7409 24.3961 87.615 24.7131 87.615H32.6781C32.995 87.615 33.299 87.7409 33.5231 87.965C33.7472 88.1891 33.8731 88.4931 33.8731 88.81V91.84C33.8731 91.9973 33.842 92.1531 33.7816 92.2985C33.7213 92.4438 33.6328 92.5757 33.5213 92.6868C33.4098 92.7978 33.2775 92.8857 33.1319 92.9455C32.9864 93.0052 32.8304 93.0356 32.6731 93.035ZM24.7131 88.115C24.5287 88.115 24.352 88.1882 24.2216 88.3186C24.0913 88.4489 24.0181 88.6257 24.0181 88.81V91.84C24.0181 92.0243 24.0913 92.2011 24.2216 92.3314C24.352 92.4618 24.5287 92.535 24.7131 92.535H32.6781C32.8624 92.535 33.0392 92.4618 33.1695 92.3314C33.2998 92.2011 33.3731 92.0243 33.3731 91.84V88.81C33.3731 88.6257 33.2998 88.4489 33.1695 88.3186C33.0392 88.1882 32.8624 88.115 32.6781 88.115H24.7131Z"
    fill="#231F20"
  />
  <path
    d="M46.3333 93.035H38.3683C38.0514 93.035 37.7475 92.9091 37.5233 92.685C37.2992 92.4609 37.1733 92.1569 37.1733 91.84V88.81C37.1733 88.4931 37.2992 88.1891 37.5233 87.965C37.7475 87.7409 38.0514 87.615 38.3683 87.615H46.3333C46.6503 87.615 46.9542 87.7409 47.1783 87.965C47.4024 88.1891 47.5283 88.4931 47.5283 88.81V91.84C47.5283 92.1569 47.4024 92.4609 47.1783 92.685C46.9542 92.9091 46.6503 93.035 46.3333 93.035ZM38.3683 88.115C38.184 88.115 38.0072 88.1882 37.8769 88.3186C37.7466 88.4489 37.6733 88.6257 37.6733 88.81V91.84C37.6733 92.0243 37.7466 92.2011 37.8769 92.3314C38.0072 92.4618 38.184 92.535 38.3683 92.535H46.3333C46.5177 92.535 46.6944 92.4618 46.8248 92.3314C46.9551 92.2011 47.0283 92.0243 47.0283 91.84V88.81C47.0283 88.6257 46.9551 88.4489 46.8248 88.3186C46.6944 88.1882 46.5177 88.115 46.3333 88.115H38.3683Z"
    fill="#231F20"
  />
  <path
    d="M19.008 85.185H11.048C10.7311 85.185 10.4271 85.0591 10.203 84.835C9.97893 84.6109 9.85303 84.307 9.85303 83.99V80.935C9.85303 80.6181 9.97893 80.3141 10.203 80.09C10.4271 79.8659 10.7311 79.74 11.048 79.74H19.008C19.1658 79.7387 19.3223 79.7686 19.4684 79.8281C19.6145 79.8876 19.7475 79.9754 19.8595 80.0865C19.9715 80.1976 20.0604 80.3298 20.1211 80.4754C20.1818 80.621 20.213 80.7773 20.213 80.935V83.965C20.2164 84.1249 20.1876 84.2838 20.1284 84.4324C20.0693 84.5809 19.9809 84.7161 19.8685 84.8298C19.7561 84.9436 19.6221 85.0336 19.4743 85.0947C19.3265 85.1557 19.1679 85.1864 19.008 85.185ZM11.048 80.265C10.8637 80.265 10.6869 80.3383 10.5566 80.4686C10.4262 80.5989 10.353 80.7757 10.353 80.96V83.99C10.353 84.1744 10.4262 84.3511 10.5566 84.4815C10.6869 84.6118 10.8637 84.685 11.048 84.685H19.008C19.1924 84.685 19.3691 84.6118 19.4995 84.4815C19.6298 84.3511 19.703 84.1744 19.703 83.99V80.935C19.703 80.7507 19.6298 80.5739 19.4995 80.4436C19.3691 80.3133 19.1924 80.24 19.008 80.24L11.048 80.265Z"
    fill="#231F20"
  />
  <path
    d="M32.6731 85.185H24.7131C24.3961 85.185 24.0922 85.0591 23.8681 84.835C23.644 84.6109 23.5181 84.3069 23.5181 83.99V80.935C23.5181 80.6181 23.644 80.3141 23.8681 80.09C24.0922 79.8659 24.3961 79.74 24.7131 79.74H32.6781C32.995 79.74 33.299 79.8659 33.5231 80.09C33.7472 80.3141 33.8731 80.6181 33.8731 80.935V83.965C33.8764 84.1244 33.8478 84.2829 33.7889 84.4311C33.7301 84.5794 33.6421 84.7143 33.5303 84.828C33.4184 84.9417 33.285 85.0318 33.1378 85.0932C32.9905 85.1545 32.8325 85.1857 32.6731 85.185ZM24.7131 80.24C24.5287 80.24 24.352 80.3132 24.2216 80.4436C24.0913 80.5739 24.0181 80.7507 24.0181 80.935V83.965C24.0147 84.0583 24.0302 84.1514 24.0636 84.2386C24.097 84.3259 24.1477 84.4055 24.2126 84.4727C24.2774 84.5399 24.3552 84.5933 24.4412 84.6298C24.5272 84.6663 24.6197 84.6851 24.7131 84.685H32.6781C32.8624 84.685 33.0392 84.6118 33.1695 84.4814C33.2998 84.3511 33.3731 84.1743 33.3731 83.99V80.935C33.3731 80.7507 33.2998 80.5739 33.1695 80.4436C33.0392 80.3132 32.8624 80.24 32.6781 80.24H24.7131Z"
    fill="#231F20"
  />
  <path
    d="M46.3333 85.185H38.3683C38.0514 85.185 37.7475 85.0591 37.5233 84.835C37.2992 84.6109 37.1733 84.3069 37.1733 83.99V80.935C37.1733 80.6181 37.2992 80.3141 37.5233 80.09C37.7475 79.8659 38.0514 79.74 38.3683 79.74H46.3333C46.6503 79.74 46.9542 79.8659 47.1783 80.09C47.4024 80.3141 47.5283 80.6181 47.5283 80.935V83.965C47.5317 84.124 47.5032 84.2821 47.4447 84.43C47.3861 84.5779 47.2986 84.7126 47.1873 84.8262C47.076 84.9398 46.9431 85.0301 46.7965 85.0917C46.6499 85.1533 46.4924 85.185 46.3333 85.185ZM38.3683 80.265C38.184 80.265 38.0072 80.3382 37.8769 80.4686C37.7466 80.5989 37.6733 80.7757 37.6733 80.96V83.99C37.6733 84.1743 37.7466 84.3511 37.8769 84.4814C38.0072 84.6118 38.184 84.685 38.3683 84.685H46.3333C46.5177 84.685 46.6944 84.6118 46.8248 84.4814C46.9551 84.3511 47.0283 84.1743 47.0283 83.99V80.935C47.0283 80.7507 46.9551 80.5739 46.8248 80.4436C46.6944 80.3132 46.5177 80.24 46.3333 80.24L38.3683 80.265Z"
    fill="#231F20"
  />
  <path
    d="M19.008 77.2251H11.048C10.7315 77.2237 10.4283 77.0974 10.2045 76.8736C9.98067 76.6498 9.85434 76.3466 9.85303 76.0301V72.995C9.85303 72.6781 9.97893 72.3742 10.203 72.1501C10.4271 71.9259 10.7311 71.8 11.048 71.8H19.008C19.325 71.8 19.6289 71.9259 19.853 72.1501C20.0771 72.3742 20.203 72.6781 20.203 72.995V76.0301C20.2017 76.3466 20.0754 76.6498 19.8516 76.8736C19.6277 77.0974 19.3246 77.2237 19.008 77.2251ZM11.048 72.3C10.8637 72.3 10.6869 72.3733 10.5566 72.5036C10.4262 72.6339 10.353 72.8107 10.353 72.995V76.0301C10.353 76.2144 10.4262 76.3912 10.5566 76.5215C10.6869 76.6518 10.8637 76.7251 11.048 76.7251H19.008C19.1924 76.7251 19.3691 76.6518 19.4995 76.5215C19.6298 76.3912 19.703 76.2144 19.703 76.0301V72.995C19.703 72.8107 19.6298 72.6339 19.4995 72.5036C19.3691 72.3733 19.1924 72.3 19.008 72.3H11.048Z"
    fill="#231F20"
  />
  <path
    d="M32.6731 77.2251H24.7131C24.3965 77.2237 24.0934 77.0974 23.8695 76.8736C23.6457 76.6498 23.5194 76.3466 23.5181 76.0301V72.995C23.5181 72.6781 23.644 72.3742 23.8681 72.1501C24.0922 71.9259 24.3961 71.8 24.7131 71.8H32.6781C32.995 71.8 33.299 71.9259 33.5231 72.1501C33.7472 72.3742 33.8731 72.6781 33.8731 72.995V76.0301C33.8717 76.3474 33.7447 76.6514 33.5198 76.8754C33.2949 77.0993 32.9905 77.2251 32.6731 77.2251ZM24.7131 72.3C24.5287 72.3 24.352 72.3733 24.2216 72.5036C24.0913 72.6339 24.0181 72.8107 24.0181 72.995V76.0301C24.0181 76.2144 24.0913 76.3912 24.2216 76.5215C24.352 76.6518 24.5287 76.7251 24.7131 76.7251H32.6781C32.862 76.7237 33.038 76.6501 33.1681 76.52C33.2981 76.39 33.3718 76.214 33.3731 76.0301V72.995C33.3718 72.8111 33.2981 72.6351 33.1681 72.5051C33.038 72.375 32.862 72.3014 32.6781 72.3H24.7131Z"
    fill="#231F20"
  />
  <path
    d="M46.3333 77.2251H38.3683C38.0518 77.2237 37.7486 77.0974 37.5248 76.8736C37.301 76.6498 37.1747 76.3466 37.1733 76.0301V72.995C37.1733 72.6781 37.2992 72.3742 37.5233 72.1501C37.7475 71.9259 38.0514 71.8 38.3683 71.8H46.3333C46.6503 71.8 46.9542 71.9259 47.1783 72.1501C47.4024 72.3742 47.5283 72.6781 47.5283 72.995V76.0301C47.527 76.3466 47.4007 76.6498 47.1769 76.8736C46.9531 77.0974 46.6499 77.2237 46.3333 77.2251ZM38.3683 72.3C38.1844 72.3014 38.0084 72.375 37.8783 72.5051C37.7483 72.6351 37.6746 72.8111 37.6733 72.995V76.0301C37.6746 76.214 37.7483 76.39 37.8783 76.52C38.0084 76.6501 38.1844 76.7237 38.3683 76.7251H46.3333C46.5177 76.7251 46.6944 76.6518 46.8248 76.5215C46.9551 76.3912 47.0283 76.2144 47.0283 76.0301V72.995C47.0283 72.8107 46.9551 72.6339 46.8248 72.5036C46.6944 72.3733 46.5177 72.3 46.3333 72.3H38.3683Z"
    fill="#231F20"
  />
  <path
    d="M44.8933 24.625V0.975L41.9383 3.365L39.4383 0.689999L36.3283 3.225L33.8533 0.269999L31.0633 3.155L28.5033 0.269999L25.8283 3.04L23.1083 0.269999L20.7633 2.92L17.5283 0.684999L15.9433 2.685L12.4883 0.25V24.625H44.8933Z"
    fill="white"
  />
  <path
    d="M44.8933 24.8751H12.4883C12.422 24.8751 12.3584 24.8487 12.3115 24.8019C12.2647 24.755 12.2383 24.6914 12.2383 24.6251V0.27008C12.2375 0.224359 12.2498 0.179363 12.2737 0.140388C12.2976 0.101413 12.3322 0.0700801 12.3733 0.0500808C12.4113 0.0255398 12.4556 0.012487 12.5008 0.012487C12.546 0.012487 12.5903 0.0255398 12.6283 0.0500808L15.8933 2.35008L17.3283 0.525081C17.3671 0.474075 17.4241 0.439928 17.4873 0.429693C17.5506 0.419457 17.6154 0.433915 17.6683 0.470081L20.7133 2.58508L22.9083 0.0850806C22.9305 0.0588595 22.958 0.0377021 22.9891 0.0230384C23.0201 0.00837468 23.054 0.000547083 23.0883 8.15551e-05C23.1227 -0.00079555 23.1568 0.00541008 23.1886 0.0183139C23.2205 0.0312177 23.2493 0.0505418 23.2733 0.0750804L25.8083 2.68508L28.3083 0.100082C28.3579 0.051923 28.4242 0.0250107 28.4933 0.0250812C28.5278 0.0248624 28.5618 0.0323873 28.593 0.0470996C28.6241 0.0618119 28.6516 0.0833347 28.6733 0.11008L31.0533 2.79508L33.6583 0.100082C33.6829 0.074909 33.7126 0.0552157 33.7453 0.0422912C33.778 0.0293667 33.8132 0.0235017 33.8483 0.0250812C33.8829 0.0267922 33.9168 0.0356767 33.9478 0.0511699C33.9788 0.066663 34.0062 0.0884268 34.0283 0.115081L36.3433 2.88008L39.2633 0.505081C39.3095 0.462207 39.3703 0.438385 39.4333 0.438385C39.4964 0.438385 39.5571 0.462207 39.6033 0.505081L41.9633 3.00508L44.7433 0.760082C44.7801 0.731024 44.8243 0.712886 44.8709 0.70774C44.9175 0.702595 44.9645 0.710648 45.0068 0.730979C45.049 0.751311 45.0847 0.783102 45.1097 0.822727C45.1347 0.862352 45.1481 0.908215 45.1483 0.955081V24.6051C45.1511 24.64 45.1466 24.6751 45.135 24.7081C45.1233 24.7411 45.1049 24.7714 45.0809 24.7968C45.0568 24.8223 45.0277 24.8424 44.9954 24.8559C44.9631 24.8693 44.9283 24.8759 44.8933 24.8751ZM12.7383 24.3751H44.6433V1.50008L42.0933 3.56008C42.0471 3.60295 41.9864 3.62678 41.9233 3.62678C41.8603 3.62678 41.7995 3.60295 41.7533 3.56008L39.3933 1.06008L36.4633 3.44508C36.4121 3.48653 36.3467 3.5061 36.2811 3.49955C36.2156 3.49299 36.1553 3.46084 36.1133 3.41008L33.8183 0.670082L31.2133 3.33008C31.1891 3.35438 31.1602 3.37355 31.1285 3.38644C31.0967 3.39932 31.0626 3.40566 31.0283 3.40508C30.9931 3.40534 30.9583 3.39786 30.9264 3.38317C30.8944 3.36848 30.866 3.34694 30.8433 3.32008L28.4633 0.640081L25.9633 3.21008C25.9419 3.23679 25.9143 3.25799 25.883 3.27191C25.8517 3.28582 25.8175 3.29205 25.7833 3.29008C25.7162 3.28791 25.6521 3.26123 25.6033 3.21508L23.0733 0.635082L20.9083 3.08508C20.8672 3.13011 20.8113 3.1589 20.7507 3.16624C20.6902 3.17358 20.629 3.15898 20.5783 3.12508L17.5533 1.03008L16.1133 2.86008C16.0738 2.9103 16.0165 2.94346 15.9533 2.95276C15.89 2.96206 15.8256 2.94679 15.7733 2.91008L12.7133 0.750082L12.7383 24.3751Z"
    fill="#231F20"
  />
  <path d="M9.58301 24.625C10.083 24.485 47.793 24.625 47.793 24.625H9.58301Z" fill="white" />
  <path
    d="M9.56802 24.88C9.51436 24.8778 9.46275 24.8588 9.42055 24.8255C9.37836 24.7923 9.34772 24.7466 9.33302 24.695C9.32478 24.6625 9.32303 24.6286 9.32786 24.5955C9.3327 24.5623 9.34404 24.5304 9.36122 24.5016C9.37841 24.4728 9.4011 24.4477 9.42801 24.4277C9.45491 24.4076 9.4855 24.3931 9.51802 24.385C10.018 24.24 41.518 24.35 47.798 24.385C47.8643 24.385 47.9279 24.4113 47.9748 24.4582C48.0217 24.5051 48.048 24.5687 48.048 24.635C48.048 24.7013 48.0217 24.7649 47.9748 24.8117C47.9279 24.8586 47.8643 24.885 47.798 24.885C34.923 24.835 10.373 24.775 9.63802 24.885L9.56802 24.88Z"
    fill="#231F20"
  />
  <path
    d="M40.1233 8.97509H15.6683C15.6296 8.98614 15.5889 8.98806 15.5493 8.9807C15.5098 8.97333 15.4725 8.95689 15.4403 8.93265C15.4082 8.90842 15.3821 8.87706 15.3642 8.84104C15.3462 8.80502 15.3369 8.76533 15.3369 8.72509C15.3369 8.68485 15.3462 8.64515 15.3642 8.60914C15.3821 8.57312 15.4082 8.54176 15.4403 8.51752C15.4725 8.49329 15.5098 8.47684 15.5493 8.46948C15.5889 8.46211 15.6296 8.46404 15.6683 8.47509H40.1233C40.1777 8.49061 40.2254 8.5234 40.2595 8.56851C40.2935 8.61362 40.3119 8.66859 40.3119 8.72509C40.3119 8.78159 40.2935 8.83656 40.2595 8.88166C40.2254 8.92677 40.1777 8.95957 40.1233 8.97509Z"
    fill="#D1D3D4"
  />
  <path
    d="M33.8083 14.4302H15.6683C15.6296 14.4412 15.5889 14.4431 15.5493 14.4358C15.5098 14.4284 15.4725 14.412 15.4403 14.3877C15.4082 14.3635 15.3821 14.3321 15.3642 14.2961C15.3462 14.2601 15.3369 14.2204 15.3369 14.1802C15.3369 14.1399 15.3462 14.1002 15.3642 14.0642C15.3821 14.0282 15.4082 13.9968 15.4403 13.9726C15.4725 13.9484 15.5098 13.9319 15.5493 13.9246C15.5889 13.9172 15.6296 13.9191 15.6683 13.9302H33.8083C33.847 13.9191 33.8878 13.9172 33.9273 13.9246C33.9669 13.9319 34.0042 13.9484 34.0363 13.9726C34.0684 13.9968 34.0945 14.0282 34.1124 14.0642C34.1304 14.1002 34.1397 14.1399 34.1397 14.1802C34.1397 14.2204 34.1304 14.2601 34.1124 14.2961C34.0945 14.3321 34.0684 14.3635 34.0363 14.3877C34.0042 14.412 33.9669 14.4284 33.9273 14.4358C33.8878 14.4431 33.847 14.4412 33.8083 14.4302Z"
    fill="#D1D3D4"
  />
  <path
    d="M36.8133 19.885H15.6683C15.6296 19.8961 15.5889 19.898 15.5493 19.8906C15.5098 19.8832 15.4725 19.8668 15.4403 19.8426C15.4082 19.8183 15.3821 19.787 15.3642 19.751C15.3462 19.7149 15.3369 19.6752 15.3369 19.635C15.3369 19.5948 15.3462 19.5551 15.3642 19.519C15.3821 19.483 15.4082 19.4517 15.4403 19.4274C15.4725 19.4032 15.5098 19.3868 15.5493 19.3794C15.5889 19.372 15.6296 19.3739 15.6683 19.385H36.8133C36.852 19.3739 36.8927 19.372 36.9323 19.3794C36.9719 19.3868 37.0092 19.4032 37.0413 19.4274C37.0734 19.4517 37.0995 19.483 37.1175 19.519C37.1354 19.5551 37.1447 19.5948 37.1447 19.635C37.1447 19.6752 37.1354 19.7149 37.1175 19.751C37.0995 19.787 37.0734 19.8183 37.0413 19.8426C37.0092 19.8668 36.9719 19.8832 36.9323 19.8906C36.8927 19.898 36.852 19.8961 36.8133 19.885Z"
    fill="#D1D3D4"
  />
  <path d="M59.2734 26.9751H56.9834V103.68H59.2734V26.9751Z" fill="#D1D3D4" />
  <path
    d="M59.2734 103.935H56.9834C56.9171 103.935 56.8535 103.909 56.8066 103.862C56.7597 103.815 56.7334 103.751 56.7334 103.685V26.9751C56.7334 26.9088 56.7597 26.8452 56.8066 26.7983C56.8535 26.7514 56.9171 26.7251 56.9834 26.7251H59.2734C59.3393 26.7264 59.4022 26.7531 59.4488 26.7997C59.4954 26.8463 59.5221 26.9092 59.5234 26.9751V103.685C59.5221 103.751 59.4954 103.814 59.4488 103.86C59.4022 103.907 59.3393 103.934 59.2734 103.935ZM57.2334 103.435H59.0234V27.2251H57.2134L57.2334 103.435Z"
    fill="#231F20"
  />
</svg>
